# vtk DataFile Version 3.0
box
ASCII

DATASET UNSTRUCTURED_GRID
POINTS 10 double
  0.05000000  -0.10000000  -0.15000000
  0.05000000  -0.10000000   0.15000000
  0.05000000   0.10000000  -0.15000000
  0.05000000   0.10000000   0.15000000
 -0.00000000  -0.05000000  -0.10000000
 -0.00000000  -0.05000000   0.10000000
 -0.00000000   0.05000000  -0.10000000
 -0.00000000   0.05000000   0.10000000
  0.05000000   0.00000000   0.00000000
  0.00000000   0.00000000   0.00000000

CELLS 12 60
4      6      7      9     3
4      7      5      9     3
4      5      1      9     3
4      1      8      9     3
4      8      2      9     3
4      2      6      9     3
4      2      0      8     9
4      8      0      1     9
4      1      0      5     9
4      5      0      4     9
4      4      0      6     9
4      6      0      2     9

CELL_TYPES 12
10
10
10
10
10
10
10
10
10
10
10
10

