# vtk DataFile Version 3.0
box
ASCII

DATASET UNSTRUCTURED_GRID
POINTS 7 double
 -0.05000000   0.10000000  -0.15000000
 -0.05000000   0.10000000   0.15000000
  0.05000000   0.10000000  -0.15000000
  0.05000000   0.10000000   0.15000000
 -0.00000000   0.05000000  -0.10000000
 -0.00000000   0.05000000   0.10000000
  0.00000000   0.10000000   0.00000000

CELLS 5 25
4      2      6      4      3
4      6      1      4      3
4      1      5      4      3
4      1      0      6      4
4      6      0      2      4

CELL_TYPES 5
10
10
10
10
10

